# xmcd
#
# Track frame offsets: 
#        150
#        17848
#        37773
#        54546
#        73835
#        88589
#        103120
#        119288
#        136292
#        151898
#
# Disc length: 2744 seconds
#
# Revision: 0
# Processed by: cddbd v1.5.2PL0 Copyright (c) Steve Scherf et al.
# Submitted via: ExactAudioCopy v0.95a5
#
DISCID=7e0ab60a
DTITLE=David Bradley - Movin' On
DYEAR=2010
DGENRE=Country
TTITLE0=When The Devil Goes Under
TTITLE1=High
TTITLE2=Soak It Up
TTITLE3=Hard Time Movin' On (feat. Rodney Crowell) 
TTITLE4=If You Can't Make Money
TTITLE5=That's What It's Like
TTITLE6=Two Months Tuesday
TTITLE7=Someday We'll Get It Right (feat. Emily West)
TTITLE8=Good Boys (When We're Sleeping)
TTITLE9=Honey Run
EXTD=
EXTT0=
EXTT1=
EXTT2=
EXTT3=
EXTT4=
EXTT5=
EXTT6=
EXTT7=
EXTT8=
EXTT9=
PLAYORDER=
